HIERARCHY
ROOT reference
{
  OFFSET 0 0 0
  CHANNELS 6 Xposition Yposition Zposition Zrotation Xrotation Yrotation
  JOINT Hips
  {
    OFFSET 352.076 86.5813 226.294
    CHANNELS 3 Zrotation Xrotation Yrotation
    JOINT RightUpLeg
    {
      OFFSET -9.24446 -1.53332 -0.0100408
      CHANNELS 3 Zrotation Xrotation Yrotation
      JOINT RightLeg
      {
        OFFSET 0.0379954 -41.8775 0.0555708
        CHANNELS 3 Zrotation Xrotation Yrotation
        JOINT RightFoot
        {
          OFFSET 0.0737403 -43.7597 -0.208372
          CHANNELS 3 Zrotation Xrotation Yrotation
          End Site
          {
            OFFSET 0 -7.69 17.5
          }
        }
      }
    }
    JOINT LeftUpLeg
    {
      OFFSET 9.31004 -1.65148 -0.0333589
      CHANNELS 3 Zrotation Xrotation Yrotation
      JOINT LeftLeg
      {
        OFFSET 0.0881386 -41.8624 -0.0616493
        CHANNELS 3 Zrotation Xrotation Yrotation
        JOINT LeftFoot
        {
          OFFSET 0.763074 -39.9619 0.249975
          CHANNELS 3 Zrotation Xrotation Yrotation
          End Site
          {
            OFFSET 0 -7.69 17.5
          }
        }
      }
    }
    JOINT Spine
    {
      OFFSET 0.105097 14.2958 0.096313
      CHANNELS 3 Zrotation Xrotation Yrotation
      JOINT Spine1
      {
        OFFSET 0.0609256 9.72986 0.0283835
        CHANNELS 3 Zrotation Xrotation Yrotation
        JOINT Spine2
        {
          OFFSET 0.0349843 10.1145 -0.0203086
          CHANNELS 3 Zrotation Xrotation Yrotation
          JOINT Spine3
          {
            OFFSET 0.0323734 9.71864 0.0196425
            CHANNELS 3 Zrotation Xrotation Yrotation
            JOINT Neck
            {
              OFFSET 0.219168 10.3708 0.0833364
              CHANNELS 3 Zrotation Xrotation Yrotation
              JOINT Head
              {
                OFFSET 0.200748 9.48753 0.0966912
                CHANNELS 3 Zrotation Xrotation Yrotation
                End Site
                {
                  OFFSET 0 15.95 0
                }
              }
            }
            JOINT RightShoulder
            {
              OFFSET -3.14734 6.94135 0.063802
              CHANNELS 3 Zrotation Xrotation Yrotation
              JOINT RightArm
              {
                OFFSET -12.765 0.137663 0.228635
                CHANNELS 3 Zrotation Xrotation Yrotation
                JOINT RightForeArm
                {
                  OFFSET -26.5344 -0.389186 -0.00603507
                  CHANNELS 3 Zrotation Xrotation Yrotation
                  JOINT RightHand
                  {
                    OFFSET -26.1352 -0.0585664 0.0704552
                    CHANNELS 3 Zrotation Xrotation Yrotation
                    JOINT RightHandThumb1
                    {
                      OFFSET -2.48905 0.190105 3.12053
                      CHANNELS 3 Zrotation Xrotation Yrotation
                      JOINT RightHandThumb2
                      {
                        OFFSET -3.68274 0 0
                        CHANNELS 3 Zrotation Xrotation Yrotation
                        JOINT RightHandThumb3
                        {
                          OFFSET -2.55832 0 0
                          CHANNELS 3 Zrotation Xrotation Yrotation
                          End Site
                          {
                            OFFSET -2.194 0 0
                          }
                        }
                      }
                    }
                    JOINT RightInHandIndex
                    {
                      OFFSET -3.22368 0.508421 1.97842
                      CHANNELS 3 Zrotation Xrotation Yrotation
                      JOINT RightHandIndex1
                      {
                        OFFSET -5.21684 -0.091368 0.999158
                        CHANNELS 3 Zrotation Xrotation Yrotation
                        JOINT RightHandIndex2
                        {
                          OFFSET -3.61937 0 0
                          CHANNELS 3 Zrotation Xrotation Yrotation
                          JOINT RightHandIndex3
                          {
                            OFFSET -2.0521 0 0
                            CHANNELS 3 Zrotation Xrotation Yrotation
                            End Site
                            {
                              OFFSET -1.805 0 0
                            }
                          }
                        }
                      }
                    }
                    JOINT RightInHandMiddle
                    {
                      OFFSET -3.38211 0.517263 0.756737
                      CHANNELS 3 Zrotation Xrotation Yrotation
                      JOINT RightHandMiddle1
                      {
                        OFFSET -5.17411 -0.084 0.313895
                        CHANNELS 3 Zrotation Xrotation Yrotation
                        JOINT RightHandMiddle2
                        {
                          OFFSET -3.94947 0 0
                          CHANNELS 3 Zrotation Xrotation Yrotation
                          JOINT RightHandMiddle3
                          {
                            OFFSET -2.47579 0 0
                            CHANNELS 3 Zrotation Xrotation Yrotation
                            End Site
                            {
                              OFFSET -1.975 0 0
                            }
                          }
                        }
                      }
                    }
                    JOINT RightInHandRing
                    {
                      OFFSET -3.36516 0.537895 -0.128947
                      CHANNELS 3 Zrotation Xrotation Yrotation
                      JOINT RightHandRing1
                      {
                        OFFSET -4.63474 -0.022105 -0.478947
                        CHANNELS 3 Zrotation Xrotation Yrotation
                        JOINT RightHandRing2
                        {
                          OFFSET -3.44238 0 0
                          CHANNELS 3 Zrotation Xrotation Yrotation
                          JOINT RightHandRing3
                          {
                            OFFSET -2.3881 0 0
                            CHANNELS 3 Zrotation Xrotation Yrotation
                            End Site
                            {
                              OFFSET -1.857 0 0
                            }
                          }
                        }
                      }
                    }
                    JOINT RightInHandPinky
                    {
                      OFFSET -3.16105 0.469368 -1.20179
                      CHANNELS 3 Zrotation Xrotation Yrotation
                      JOINT RightHandPinky1
                      {
                        OFFSET -4.14105 -0.022105 -1.09053
                        CHANNELS 3 Zrotation Xrotation Yrotation
                        JOINT RightHandPinky2
                        {
                          OFFSET -2.75653 0 0
                          CHANNELS 3 Zrotation Xrotation Yrotation
                          JOINT RightHandPinky3
                          {
                            OFFSET -1.74189 0 0
                            CHANNELS 3 Zrotation Xrotation Yrotation
                            End Site
                            {
                              OFFSET -1.645 0 0
                            }
                          }
                        }
                      }
                    }
                  }
                }
              }
            }
            JOINT LeftShoulder
            {
              OFFSET 3.26179 6.89719 -0.0373062
              CHANNELS 3 Zrotation Xrotation Yrotation
              JOINT LeftArm
              {
                OFFSET 12.4839 0.0196156 -0.0323257
                CHANNELS 3 Zrotation Xrotation Yrotation
                JOINT LeftForeArm
                {
                  OFFSET 26.5039 -0.120667 0.247609
                  CHANNELS 3 Zrotation Xrotation Yrotation
                  JOINT LeftHand
                  {
                    OFFSET 25.9984 -0.032285 0.00286418
                    CHANNELS 3 Zrotation Xrotation Yrotation
                    JOINT LeftHandThumb1
                    {
                      OFFSET 2.48905 0.190105 3.12053
                      CHANNELS 3 Zrotation Xrotation Yrotation
                      JOINT LeftHandThumb2
                      {
                        OFFSET 3.68274 0 0
                        CHANNELS 3 Zrotation Xrotation Yrotation
                        JOINT LeftHandThumb3
                        {
                          OFFSET 2.55832 0 0
                          CHANNELS 3 Zrotation Xrotation Yrotation
                          End Site
                          {
                            OFFSET 2.194 0 0
                          }
                        }
                      }
                    }
                    JOINT LeftInHandIndex
                    {
                      OFFSET 3.22368 0.508421 1.97842
                      CHANNELS 3 Zrotation Xrotation Yrotation
                      JOINT LeftHandIndex1
                      {
                        OFFSET 5.21684 -0.091368 0.999158
                        CHANNELS 3 Zrotation Xrotation Yrotation
                        JOINT LeftHandIndex2
                        {
                          OFFSET 3.61937 0 0
                          CHANNELS 3 Zrotation Xrotation Yrotation
                          JOINT LeftHandIndex3
                          {
                            OFFSET 2.0521 0 0
                            CHANNELS 3 Zrotation Xrotation Yrotation
                            End Site
                            {
                              OFFSET 1.805 0 0
                            }
                          }
                        }
                      }
                    }
                    JOINT LeftInHandMiddle
                    {
                      OFFSET 3.38211 0.517263 0.756737
                      CHANNELS 3 Zrotation Xrotation Yrotation
                      JOINT LeftHandMiddle1
                      {
                        OFFSET 5.17411 -0.084 0.313895
                        CHANNELS 3 Zrotation Xrotation Yrotation
                        JOINT LeftHandMiddle2
                        {
                          OFFSET 3.94947 0 0
                          CHANNELS 3 Zrotation Xrotation Yrotation
                          JOINT LeftHandMiddle3
                          {
                            OFFSET 2.47579 0 0
                            CHANNELS 3 Zrotation Xrotation Yrotation
                            End Site
                            {
                              OFFSET 1.975 0 0
                            }
                          }
                        }
                      }
                    }
                    JOINT LeftInHandRing
                    {
                      OFFSET 3.36516 0.537895 -0.128947
                      CHANNELS 3 Zrotation Xrotation Yrotation
                      JOINT LeftHandRing1
                      {
                        OFFSET 4.63474 -0.022105 -0.478947
                        CHANNELS 3 Zrotation Xrotation Yrotation
                        JOINT LeftHandRing2
                        {
                          OFFSET 3.44238 0 0
                          CHANNELS 3 Zrotation Xrotation Yrotation
                          JOINT LeftHandRing3
                          {
                            OFFSET 2.3881 0 0
                            CHANNELS 3 Zrotation Xrotation Yrotation
                            End Site
                            {
                              OFFSET 1.857 0 0
                            }
                          }
                        }
                      }
                    }
                    JOINT LeftInHandPinky
                    {
                      OFFSET 3.16105 0.469368 -1.20179
                      CHANNELS 3 Zrotation Xrotation Yrotation
                      JOINT LeftHandPinky1
                      {
                        OFFSET 4.14105 -0.022105 -1.09053
                        CHANNELS 3 Zrotation Xrotation Yrotation
                        JOINT LeftHandPinky2
                        {
                          OFFSET 2.75653 0 0
                          CHANNELS 3 Zrotation Xrotation Yrotation
                          JOINT LeftHandPinky3
                          {
                            OFFSET 1.74189 0 0
                            CHANNELS 3 Zrotation Xrotation Yrotation
                            End Site
                            {
                              OFFSET 1.645 0 0
                            }
                          }
                        }
                      }
                    }
                  }
                }
              }
            }
          }
        }
      }
    }
  }
}
MOTION
Frames: 2
Frame Time: 0.00833333
6.000000000000000000e+02 0.000000000000000000e+00 0.000000000000000000e+00 0.000000000000000000e+00 0.000000000000000000e+00 0.000000000000000000e+00 -7.106000917479630141e-01 2.681256507521173615e-01 1.201989807175221303e+00 -2.052835647813502917e-01 5.676607237398686445e-01 -5.635011866221864008e-01 1.255565638886936841e-01 6.320353307780308683e-01 -9.067278359544819755e-02 -4.916208861674012387e-01 -3.258349333344236487e-01 -3.916496169259309212e-01 -1.818732631696918345e+00 3.596260248367115220e-01 -1.478534160703165901e+00 3.003708844806446399e-01 2.573397698627107391e-02 3.003273410291753404e-02 -4.817303356405897574e-01 -8.688814836802644104e-05 -1.014718020884891381e+00 4.469385871410001647e-03 5.143798001936246075e-04 6.498134125176073805e-01 -1.368025978360437253e-02 -9.247159918400442088e-03 1.830366776802735129e-01 -2.318717021285990332e-02 -1.141919296629287546e-02 2.454919268897545748e-01 1.326059020286431481e-02 -3.569027772824901953e-03 -6.609906598978808334e-02 5.760618013882715105e-02 -1.195722708568056902e-01 -4.251905326431146825e-01 7.004063040472918722e-02 2.321536821564125497e-01 -9.586910911371584465e-01 -2.511050299417608156e-01 1.472172881528051869e-01 5.824840496341783525e-02 -5.035543454163931426e-02 -7.799731492516727427e-02 -9.233551634352806792e-01 3.179728987637267856e+00 -5.151630579570953827e+00 4.167852725665646574e+00 -1.465705418953060946e+00 -1.962186178721820884e+00 1.907917332305705704e+00 0.000000000000000000e+00 0.000000000000000000e+00 0.000000000000000000e+00 -9.947096451621556942e-16 6.159936867757765859e-16 0.000000000000000000e+00 2.347148210682406310e-15 2.702189805080187978e-16 0.000000000000000000e+00 -1.496675984826963783e-15 -1.234002802569245247e-15 4.964551547538741844e-16 0.000000000000000000e+00 0.000000000000000000e+00 0.000000000000000000e+00 0.000000000000000000e+00 -1.889905669295413468e-15 -9.978928581438065507e-16 0.000000000000000000e+00 2.771412182594684218e-16 4.546941584223212211e-16 -1.496675984826963783e-15 -1.234002802569245247e-15 4.964551547538741844e-16 0.000000000000000000e+00 -1.427971251358384933e-16 -3.121677906097919111e-15 0.000000000000000000e+00 6.153409848316264910e-16 3.611832686334464787e-16 0.000000000000000000e+00 -3.297269153436212518e-16 -2.022232496507357854e-15 -1.496675984826963783e-15 -1.234002802569245247e-15 4.964551547538741844e-16 0.000000000000000000e+00 0.000000000000000000e+00 0.000000000000000000e+00 0.000000000000000000e+00 -6.352647579621186859e-16 9.292605517999996769e-16 0.000000000000000000e+00 1.062417709245440378e-15 -1.438486896108075243e-15 -1.496675984826963783e-15 -1.234002802569245247e-15 4.964551547538741844e-16 0.000000000000000000e+00 0.000000000000000000e+00 0.000000000000000000e+00 0.000000000000000000e+00 1.717886773734746915e-16 2.041232939317935185e-15 0.000000000000000000e+00 -5.311394572505918504e-16 -1.962137155057363686e-15 -3.994999938586158567e-02 -7.750639127196531919e-02 -1.256229261363920546e+00 1.491173555849764298e+00 -2.464461645950732471e+00 -2.500058035152895042e-01 1.476630203986936962e+01 -1.614419953069979652e+00 1.763249790098362624e+01 -8.321833083724604618e-01 -6.984830391123201254e-01 2.429021661105529972e+00 0.000000000000000000e+00 0.000000000000000000e+00 0.000000000000000000e+00 6.786300505367983849e-16 -2.273325442921382512e-15 0.000000000000000000e+00 3.733456355718164170e-16 -9.653249819855885029e-16 0.000000000000000000e+00 1.588779539618587169e-15 -5.782548851642995977e-16 1.777741018021919629e-15 0.000000000000000000e+00 0.000000000000000000e+00 0.000000000000000000e+00 0.000000000000000000e+00 -4.283801583894616173e-16 3.864289201883330934e-15 0.000000000000000000e+00 -5.107793678821074637e-16 1.476644999879112545e-15 1.588779539618587169e-15 -5.782548851642995977e-16 1.777741018021919629e-15 0.000000000000000000e+00 9.687019658175129094e-16 7.718924082969438563e-15 0.000000000000000000e+00 -8.429552257612062688e-16 1.719254875831056672e-15 0.000000000000000000e+00 7.029640675650173688e-16 4.430299323937621642e-16 1.588779539618587169e-15 -5.782548851642995977e-16 1.777741018021919629e-15 0.000000000000000000e+00 0.000000000000000000e+00 0.000000000000000000e+00 0.000000000000000000e+00 -2.358284080253307466e-16 1.681514970344026063e-15 0.000000000000000000e+00 7.147770641478172167e-16 4.548106516734705621e-16 1.588779539618587169e-15 -5.782548851642995977e-16 1.777741018021919629e-15 0.000000000000000000e+00 0.000000000000000000e+00 0.000000000000000000e+00 0.000000000000000000e+00 6.640142773133549528e-16 2.779387506376064550e-15 0.000000000000000000e+00 -5.999719886955325088e-16 2.345170770720488815e-15
6.000000000000000000e+02 0.000000000000000000e+00 0.000000000000000000e+00 0.000000000000000000e+00 0.000000000000000000e+00 0.000000000000000000e+00 -7.402054621657160327e-01 1.649945690818196142e-01 1.114262039103122159e+00 -7.211035289278511229e-02 6.151223144866039272e-01 -4.263050694498615178e-01 1.048312928516015735e-01 5.931525273311694102e-01 -6.254870381888480435e-02 -5.058288119053286902e-01 -2.729343425269604717e-01 -3.145860637988855402e-01 -1.783485335794195770e+00 4.985452509540272970e-01 -1.384916267251896427e+00 2.266319283710291066e-01 1.329968407102358717e-02 4.854373881240672123e-02 -4.431642319993543966e-01 -3.116735653843796111e-02 -9.643181916014402777e-01 -3.947423536911891240e-02 -2.618323369834010296e-03 7.062435859709870201e-01 -2.280809905126863699e-02 -1.483301107966446437e-02 1.972471349978419941e-01 -3.915801001789819685e-02 -2.337077155097357084e-02 2.720351501395900651e-01 1.379828707023191513e-02 -1.161405348668106442e-03 -7.099753176321209336e-02 4.981206667810336025e-02 -1.231954623475647326e-01 -3.588403854183876418e-01 9.112784348594897554e-02 2.904176881214315387e-01 -1.115194359990646644e+00 -2.638585857295736581e-01 2.196455831699068995e-01 6.137720777389837207e-02 -9.545732147608425311e-02 -1.207508152496757914e-01 -8.667106216244457872e-01 3.288736630997145305e+00 -5.292611812665619198e+00 3.980254709275278913e+00 -1.382114199946433475e+00 -2.037667276106854608e+00 1.612241734503245372e+00 0.000000000000000000e+00 0.000000000000000000e+00 0.000000000000000000e+00 -1.120405142331688128e-15 7.815427734422891928e-16 0.000000000000000000e+00 3.095359285060020879e-15 3.979480182036095451e-16 0.000000000000000000e+00 -1.128430288631759832e-15 -1.498926641810985511e-15 5.730540527095695506e-16 0.000000000000000000e+00 0.000000000000000000e+00 0.000000000000000000e+00 0.000000000000000000e+00 -2.209283231816659583e-15 -9.262848258170110664e-16 0.000000000000000000e+00 1.301368853249055519e-16 4.535978415394169033e-16 -1.128430288631759832e-15 -1.498926641810985511e-15 5.730540527095695506e-16 0.000000000000000000e+00 -2.337630972059587270e-17 -3.154500805229843830e-15 0.000000000000000000e+00 6.974352434501677921e-16 3.205624474548059414e-16 0.000000000000000000e+00 -2.916642810410499831e-16 -2.384881920241011069e-15 -1.128430288631759832e-15 -1.498926641810985511e-15 5.730540527095695506e-16 0.000000000000000000e+00 0.000000000000000000e+00 0.000000000000000000e+00 0.000000000000000000e+00 -5.953231603429059052e-16 9.858729629124800270e-16 0.000000000000000000e+00 1.050768748011529500e-15 -1.601343503980329304e-15 -1.128430288631759832e-15 -1.498926641810985511e-15 5.730540527095695506e-16 0.000000000000000000e+00 0.000000000000000000e+00 0.000000000000000000e+00 0.000000000000000000e+00 7.964167704856543985e-17 1.868016620624325177e-15 0.000000000000000000e+00 -3.700120653111064715e-16 -2.332346739675166327e-15 -5.283413872205320813e-03 -1.339557553879394125e-01 -1.317250020917118070e+00 1.505121482163649826e+00 -2.462450794705222101e+00 -2.870684621152522764e-01 1.420892237674073577e+01 -1.863823574873837430e+00 1.740064235780934965e+01 -7.522112618659768657e-01 -7.553982549872465535e-01 2.467840517576390447e+00 0.000000000000000000e+00 0.000000000000000000e+00 0.000000000000000000e+00 7.258336949980100275e-16 -2.771362911962808996e-15 0.000000000000000000e+00 3.885726404825038531e-16 -1.300804154216915723e-15 0.000000000000000000e+00 1.558952842575086050e-15 -5.418458369273576638e-16 1.742093569500273007e-15 0.000000000000000000e+00 0.000000000000000000e+00 0.000000000000000000e+00 0.000000000000000000e+00 -5.615951648873565568e-16 3.774652911932131949e-15 0.000000000000000000e+00 -5.726601531203040025e-16 1.528827968762546050e-15 1.558952842575086050e-15 -5.418458369273576638e-16 1.742093569500273007e-15 0.000000000000000000e+00 1.084350030975759363e-15 7.857449785763525800e-15 0.000000000000000000e+00 -8.703876700004443796e-16 1.733694076543585660e-15 0.000000000000000000e+00 7.851860945077943383e-16 5.299620244634399529e-16 1.558952842575086050e-15 -5.418458369273576638e-16 1.742093569500273007e-15 0.000000000000000000e+00 0.000000000000000000e+00 0.000000000000000000e+00 0.000000000000000000e+00 -1.845358669882947898e-16 1.558731902391549218e-15 0.000000000000000000e+00 5.255744747073594863e-16 6.717868734354841026e-16 1.558952842575086050e-15 -5.418458369273576638e-16 1.742093569500273007e-15 0.000000000000000000e+00 0.000000000000000000e+00 0.000000000000000000e+00 0.000000000000000000e+00 9.299055196598125854e-16 2.559264064222945735e-15 0.000000000000000000e+00 -4.385645202439156397e-16 2.463602538133913215e-15
